<svg width="56" height="56" viewBox="0 0 56 56" fill="none" xmlns="http://www.w3.org/2000/svg">
<path fill-rule="evenodd" clip-rule="evenodd" d="M36.8838 1.42505C45.0521 4.18305 51.4783 10.6503 54.2696 18.8255C55.3881 21.794 56.0001 25.0123 56.0001 28.374C56.0001 37.7238 51.2661 45.9635 44.0731 50.8095C39.5098 54.0775 33.9246 56 27.8918 56C26.1173 56 24.1798 55.692 22.4976 55.374L22.5038 55.3633C22.5983 55.1943 23.7898 53.066 26.0781 48.9783L36.4148 30.4478L37.7766 28.08L33.2941 20.2858H26.1391C33.3023 7.71205 36.8838 1.42505 36.8838 1.42505Z" fill="#071115"/>
<path fill-rule="evenodd" clip-rule="evenodd" d="M27.8917 0C29.955 0 31.794 0.142498 33.7298 0.569248C33.744 0.572498 29.8825 7.50725 22.1455 21.374L20.8457 23.6668L19.5853 25.9265L18.2235 28.2942L22.706 36.0885H29.884L19.6183 54C19.5983 54.0307 19.581 54.0612 19.5643 54.0902L19.492 54.2162C19.327 54.5047 19.2445 54.6487 19.2445 54.6487C7.9965 51.0405 0 40.4887 0 28C0 12.536 12.4875 0 27.8917 0Z" fill="#071115"/>
</svg>
