<svg width="44" height="44" viewBox="0 0 44 44" fill="none" xmlns="http://www.w3.org/2000/svg">
<mask id="path-1-inside-1_47_8" fill="white">
<path d="M0 22C0 9.84974 9.84974 0 22 0C34.1503 0 44 9.84974 44 22C44 34.1503 34.1503 44 22 44C9.84974 44 0 34.1503 0 22Z"/>
</mask>
<path d="M0 22C0 9.84974 9.84974 0 22 0C34.1503 0 44 9.84974 44 22C44 34.1503 34.1503 44 22 44C9.84974 44 0 34.1503 0 22Z" fill="#FFE49A"/>
<path d="M0 0H44H0ZM44 24C44 36.1503 34.1503 46 22 46C9.84974 46 0 36.1503 0 24V22C0 33.0457 9.84974 42 22 42C34.1503 42 44 33.0457 44 22V24ZM0 44V0V44ZM44 0V44V0Z" fill="#694D00" mask="url(#path-1-inside-1_47_8)"/>
<path d="M31 30.9978H30.894C29.1813 30.9978 27.4684 30.9985 25.7553 30.9998C25.6718 30.9998 25.6217 30.9766 25.5747 30.9094C24.5927 29.5066 23.6095 28.1048 22.625 26.7038C22.0062 25.822 21.3869 24.9405 20.7673 24.0592C20.7553 24.0439 20.7425 24.0292 20.729 24.0152L20.1987 24.6171C18.8165 26.1882 17.4345 27.7593 16.0525 29.3305C15.5861 29.8608 15.1208 30.3918 14.6564 30.9233C14.6366 30.9488 14.6106 30.9691 14.5808 30.9824C14.5511 30.9957 14.5184 31.0016 14.4857 30.9996C13.9992 30.996 13.5127 30.9978 13 30.9978L20.0266 23.0072L13.0041 13.0093C13.0446 13.0063 13.0724 13.0024 13.1003 13.0024C14.8234 13.0024 16.5465 13.0016 18.2696 13C18.3475 13 18.3831 13.0341 18.4206 13.0878C18.9723 13.8746 19.5244 14.6608 20.0768 15.4463C20.9846 16.7385 21.8924 18.0307 22.8003 19.3231C22.8666 19.4176 22.9337 19.5119 23.0069 19.6156C23.1456 19.4588 23.2779 19.3102 23.4093 19.1609L27.7788 14.1917C28.1089 13.8163 28.4377 13.4402 28.7703 13.067C28.8018 13.0315 28.8458 13.009 28.8936 13.004C29.3766 12.9996 29.8597 13.0012 30.343 13.0014C30.3586 13.0014 30.3744 13.0038 30.4087 13.0065L23.7119 20.6218L31 30.9978ZM15.1632 14.1719C15.1835 14.202 15.1928 14.2181 15.2037 14.2333C16.0932 15.4778 16.9828 16.7221 17.8725 17.966C19.4504 20.1739 21.0282 22.3817 22.6057 24.5894C23.849 26.3291 25.0917 28.069 26.3337 29.8093C26.3742 29.8662 26.416 29.883 26.4825 29.883C27.2258 29.8813 27.9691 29.8813 28.7123 29.883H28.822C28.7922 29.8388 28.7762 29.814 28.7592 29.7899C27.6973 28.3049 26.6356 26.8198 25.5739 25.3346C24.503 23.835 23.4324 22.3355 22.3621 20.836C21.2928 19.3397 20.2235 17.8437 19.1541 16.348C18.6531 15.6478 18.1516 14.9475 17.6497 14.2472C17.6262 14.2145 17.5808 14.1753 17.5453 14.1751C16.7582 14.1709 15.971 14.1719 15.1632 14.1719Z" fill="#694D00"/>
</svg>
