<svg width="44" height="44" viewBox="0 0 44 44" fill="none" xmlns="http://www.w3.org/2000/svg">
<mask id="path-1-inside-1_47_13" fill="white">
<path d="M0 22C0 9.84974 9.84974 0 22 0C34.1503 0 44 9.84974 44 22C44 34.1503 34.1503 44 22 44C9.84974 44 0 34.1503 0 22Z"/>
</mask>
<path d="M0 22C0 9.84974 9.84974 0 22 0C34.1503 0 44 9.84974 44 22C44 34.1503 34.1503 44 22 44C9.84974 44 0 34.1503 0 22Z" fill="#FFE49A"/>
<path d="M0 0H44H0ZM44 24C44 36.1503 34.1503 46 22 46C9.84974 46 0 36.1503 0 24V22C0 33.0457 9.84974 42 22 42C34.1503 42 44 33.0457 44 22V24ZM0 44V0V44ZM44 0V44V0Z" fill="#694D00" mask="url(#path-1-inside-1_47_13)"/>
<path d="M20.3909 28.3934C20.7816 28.3934 20.9509 28.211 21.1724 28.0026C21.511 27.677 25.8614 23.4439 25.8614 23.4439L23.1913 22.7926L20.7165 24.3556L20.3909 28.2631V28.3934Z" fill="#694D00"/>
<path d="M20.6524 24.4083L26.9565 29.0583C27.6729 29.449 28.1939 29.2536 28.3762 28.394L30.9422 16.3067C31.2027 15.2517 30.5384 14.7828 29.8481 15.0954L14.7911 20.9046C13.7621 21.3214 13.7751 21.8945 14.6087 22.142L18.4772 23.3533L27.4254 17.7134C27.8422 17.4529 28.2329 17.5962 27.9203 17.8828L20.6524 24.4083Z" fill="#694D00"/>
</svg>
