<svg width="14" height="14" viewBox="0 0 14 14" fill="none" xmlns="http://www.w3.org/2000/svg">
<path d="M13.3333 13.3317H13.2548C11.9861 13.3317 10.7173 13.3322 9.44839 13.3332C9.38652 13.3332 9.34943 13.316 9.31459 13.2662C8.58722 12.2271 7.85889 11.1887 7.12961 10.151C6.67122 9.4978 6.21253 8.8448 5.75354 8.192C5.74467 8.18066 5.7352 8.16978 5.72516 8.15941L5.33234 8.60526C4.30855 9.76905 3.28481 10.9328 2.26111 12.0966C1.91564 12.4895 1.57093 12.8828 1.22696 13.2765C1.21228 13.2954 1.19306 13.3104 1.171 13.3203C1.14894 13.3302 1.12473 13.3345 1.10053 13.333C0.74014 13.3304 0.379755 13.3317 0 13.3317L5.20486 7.41274L0.00300293 0.00689996C0.033035 0.00469785 0.053607 0.00176184 0.0743291 0.00176184C1.35069 0.00176184 2.62705 0.00117446 3.90342 0C3.96108 0 3.98751 0.025251 4.01529 0.0650358C4.42392 0.647861 4.83286 1.2302 5.2421 1.81204C5.91451 2.76923 6.58698 3.72646 7.2595 4.68374C7.3086 4.75377 7.3583 4.82365 7.41251 4.90043C7.51522 4.78431 7.61328 4.6742 7.71058 4.56365L10.9473 0.882753C11.1917 0.6047 11.4353 0.326059 11.6817 0.049621C11.705 0.0233453 11.7376 0.00666692 11.773 0.00293633C12.1308 -0.000293436 12.4887 0.000880952 12.8467 0.00102776C12.8582 0.00102776 12.8699 0.00278937 12.8953 0.00484467L7.93477 5.64577L13.3333 13.3317ZM1.60236 0.868072C1.61738 0.890387 1.62428 0.902278 1.63239 0.913582C2.2913 1.83543 2.95025 2.75709 3.60925 3.67855C4.7781 5.31399 5.9468 6.94937 7.11535 8.58471C8.03633 9.87338 8.95681 11.1623 9.87679 12.4513C9.90683 12.4935 9.93776 12.5059 9.98701 12.5059C10.5376 12.5047 11.0882 12.5047 11.6388 12.5059H11.72C11.6979 12.4732 11.6861 12.4548 11.6735 12.4369C10.8869 11.337 10.1004 10.2369 9.31399 9.1367C8.52075 8.02596 7.7277 6.91522 6.93485 5.80447C6.14281 4.69607 5.35071 3.58792 4.55857 2.48002C4.18747 1.9613 3.81602 1.44258 3.44423 0.923859C3.42681 0.899636 3.39317 0.870568 3.36689 0.870421C2.78382 0.867338 2.20075 0.868072 1.60236 0.868072Z" fill="#C79300"/>
</svg>
