<svg width="18" height="18" viewBox="0 0 18 18" fill="none" xmlns="http://www.w3.org/2000/svg">
<path fill-rule="evenodd" clip-rule="evenodd" d="M0.304158 0.304158C0.709703 -0.101386 1.36722 -0.101386 1.77276 0.304158L9 7.53139L16.2272 0.304158C16.6328 -0.101386 17.2903 -0.101386 17.6958 0.304158C18.1014 0.709703 18.1014 1.36722 17.6958 1.77276L10.4686 9L17.6958 16.2272C18.1014 16.6328 18.1014 17.2903 17.6958 17.6958C17.2903 18.1014 16.6328 18.1014 16.2272 17.6958L9 10.4686L1.77276 17.6958C1.36722 18.1014 0.709703 18.1014 0.304158 17.6958C-0.101386 17.2903 -0.101386 16.6328 0.304158 16.2272L7.53139 9L0.304158 1.77276C-0.101386 1.36722 -0.101386 0.709703 0.304158 0.304158Z" fill="#24292E"/>
</svg>
