<svg width="16" height="16" viewBox="0 0 16 16" fill="none" xmlns="http://www.w3.org/2000/svg">
<path d="M14.16 4.25641H2.42669C2.27109 4.25641 2.12187 4.19698 2.01185 4.09119C1.90183 3.9854 1.84002 3.84192 1.84002 3.69231C1.84002 3.5427 1.90183 3.39922 2.01185 3.29343C2.12187 3.18764 2.27109 3.12821 2.42669 3.12821H12.4C12.5556 3.12821 12.7048 3.06877 12.8149 2.96298C12.9249 2.85719 12.9867 2.71371 12.9867 2.5641C12.9867 2.41449 12.9249 2.27101 12.8149 2.16522C12.7048 2.05943 12.5556 2 12.4 2H2.42669C1.95991 2 1.51224 2.1783 1.18218 2.49567C0.852115 2.81303 0.666687 3.24348 0.666687 3.69231V12.7179C0.666687 13.1668 0.852115 13.5972 1.18218 13.9146C1.51224 14.232 1.95991 14.4103 2.42669 14.4103H14.16C14.4712 14.4103 14.7696 14.2914 14.9897 14.0798C15.2097 13.8682 15.3334 13.5813 15.3334 13.2821V5.38462C15.3334 5.0854 15.2097 4.79843 14.9897 4.58685C14.7696 4.37527 14.4712 4.25641 14.16 4.25641ZM11.52 9.89744C11.346 9.89744 11.1758 9.84781 11.0311 9.75483C10.8864 9.66186 10.7736 9.52971 10.707 9.37509C10.6404 9.22048 10.623 9.05034 10.6569 8.88621C10.6909 8.72207 10.7747 8.5713 10.8978 8.45296C11.0208 8.33462 11.1776 8.25404 11.3483 8.22139C11.519 8.18874 11.696 8.20549 11.8568 8.26954C12.0176 8.33358 12.155 8.44203 12.2517 8.58118C12.3484 8.72033 12.4 8.88393 12.4 9.05128C12.4 9.2757 12.3073 9.49092 12.1423 9.6496C11.9772 9.80829 11.7534 9.89744 11.52 9.89744Z" fill="#C79300"/>
</svg>
