<svg width="16" height="17" viewBox="0 0 16 17" fill="none" xmlns="http://www.w3.org/2000/svg">
<circle cx="8" cy="8.5" r="7.5" fill="#FFCA38" fill-opacity="0.3" stroke="#FFE49A"/>
<path d="M7.89747 6.79836C8.47347 6.79836 8.76147 7.01036 8.76147 7.43436C8.76147 7.48236 8.74947 7.64636 8.72547 7.92636C8.70147 8.19836 8.67747 8.53836 8.65347 8.94636C8.63747 9.35436 8.62947 9.74236 8.62947 10.1104C8.62947 11.1824 8.73347 11.9624 8.94147 12.4504C8.74147 12.5384 8.51347 12.5824 8.25747 12.5824C7.90547 12.5824 7.66547 12.5104 7.53747 12.3664C7.41747 12.2224 7.35747 11.9784 7.35747 11.6344C7.35747 11.5064 7.36147 11.1984 7.36947 10.7104C7.37747 10.2144 7.38147 9.83436 7.38147 9.57036C7.38147 8.41036 7.34547 7.50236 7.27347 6.84636C7.46547 6.81436 7.67347 6.79836 7.89747 6.79836ZM7.95747 6.29436C7.71747 6.29436 7.51347 6.21436 7.34547 6.05436C7.17747 5.89436 7.09347 5.69036 7.09347 5.44236C7.09347 5.20236 7.18147 5.00236 7.35747 4.84236C7.53347 4.67436 7.74147 4.59036 7.98147 4.59036C8.21347 4.59036 8.41347 4.67436 8.58147 4.84236C8.74947 5.00236 8.83347 5.20236 8.83347 5.44236C8.83347 5.68236 8.74547 5.88636 8.56947 6.05436C8.39347 6.21436 8.18947 6.29436 7.95747 6.29436Z" fill="#FFE49A"/>
</svg>
