<svg width="24" height="24" viewBox="0 0 24 24" fill="none" xmlns="http://www.w3.org/2000/svg">
<path d="M24 23.9971H23.8586C21.5751 23.9971 19.2912 23.998 17.0071 23.9997C16.8957 23.9997 16.829 23.9688 16.7663 23.8792C15.457 22.0089 14.146 20.1397 12.8333 18.2718C12.0082 17.096 11.1826 15.9206 10.3564 14.7456C10.3404 14.7252 10.3234 14.7056 10.3053 14.6869L9.59822 15.4895C7.75539 17.5843 5.91265 19.6791 4.07 21.7739C3.44816 22.4811 2.82767 23.189 2.20853 23.8977C2.18211 23.9317 2.1475 23.9588 2.1078 23.9765C2.06809 23.9943 2.02452 24.0022 1.98094 23.9995C1.33225 23.9947 0.68356 23.9971 0 23.9971L9.36874 13.3429L0.00540528 0.0124199C0.059463 0.00845614 0.0964925 0.00317131 0.133792 0.00317131C2.43125 0.00317131 4.7287 0.00211403 7.02615 0C7.12994 0 7.17751 0.0454518 7.22752 0.117064C7.96306 1.16615 8.69915 2.21435 9.43577 3.26168C10.6461 4.98461 11.8566 6.70763 13.0671 8.43074C13.1555 8.55679 13.2449 8.68257 13.3425 8.82078C13.5274 8.61175 13.7039 8.41356 13.879 8.21458L19.7051 1.58896C20.1451 1.08846 20.5836 0.586907 21.0271 0.0893177C21.0691 0.0420215 21.1278 0.0120005 21.1914 0.00528539C21.8355 -0.000528184 22.4796 0.00158571 23.124 0.00184997C23.1448 0.00184997 23.1659 0.00502086 23.2116 0.00872041L14.2826 10.1624L24 23.9971ZM2.88425 1.56253C2.91128 1.6027 2.92371 1.6241 2.93831 1.64445C4.12433 3.30378 5.31045 4.96276 6.49666 6.62139C8.60058 9.56518 10.7042 12.5089 12.8076 15.4525C14.4654 17.7721 16.1223 20.0921 17.7782 22.4124C17.8323 22.4882 17.888 22.5107 17.9766 22.5107C18.9677 22.5084 19.9587 22.5084 20.9498 22.5107H21.096C21.0563 22.4518 21.0349 22.4187 21.0122 22.3865C19.5965 20.4065 18.1808 18.4264 16.7652 16.4461C15.3373 14.4467 13.9099 12.4474 12.4827 10.448C11.0571 8.45293 9.63128 6.45826 8.20542 4.46403C7.53745 3.53034 6.86884 2.59664 6.19961 1.66295C6.16825 1.61934 6.10771 1.56702 6.06041 1.56676C5.01088 1.56121 3.96135 1.56253 2.88425 1.56253Z" fill="#694D00"/>
</svg>
