<svg width="20" height="20" viewBox="0 0 20 20" fill="none" xmlns="http://www.w3.org/2000/svg">
<g clip-path="url(#clip0_146_15677)">
<path d="M17.4364 8.5274V6.34894C17.4364 4.50372 15.9327 3 14.0874 3H5.91339C4.06817 3 2.56445 4.50372 2.56445 6.34894V8.50812H3.66608V6.34894C3.66608 5.10961 4.67406 4.10162 5.91339 4.10162H14.0874C15.3268 4.10162 16.3348 5.10961 16.3348 6.34894V8.5274L14.5474 6.74277L13.768 7.52217L16.8856 10.637L20.0004 7.52217L19.221 6.74277L17.4364 8.5274Z" fill="#C79300"/>
<path d="M2.56403 12.6199V14.5229C2.56403 16.3681 4.06775 17.8719 5.91297 17.8719H14.087C15.9322 17.8719 17.436 16.3681 17.436 14.5229V12.3637H16.3343V14.5229C16.3343 15.7622 15.3264 16.7702 14.087 16.7702H5.91297C4.67364 16.7702 3.66566 15.7622 3.66566 14.5229V12.6199L5.45304 14.4045L6.23244 13.6251L3.11484 10.5103L0 13.6279L0.7794 14.4073L2.56403 12.6199Z" fill="#C79300"/>
</g>
<defs>
<clipPath id="clip0_146_15677">
<rect width="20" height="20" fill="white"/>
</clipPath>
</defs>
</svg>
