<svg width="19" height="19" viewBox="0 0 19 19" fill="none" xmlns="http://www.w3.org/2000/svg">
<path fill-rule="evenodd" clip-rule="evenodd" d="M5.91842 1.3335H11.8594C12.2763 1.33348 12.6359 1.33347 12.932 1.35806C13.2446 1.38401 13.5553 1.44135 13.8534 1.5962C14.2796 1.81758 14.627 2.16506 14.8484 2.59123C15.0033 2.88932 15.0607 3.20002 15.0866 3.5126C15.1111 3.80867 15.1111 4.16832 15.1111 4.58521V9.50016C15.1111 9.92973 14.7629 10.2779 14.3334 10.2779C13.9038 10.2779 13.5556 9.92973 13.5556 9.50016V4.61572C13.5556 4.15973 13.555 3.8653 13.5364 3.64133C13.5186 3.42669 13.4883 3.34735 13.468 3.3083C13.3942 3.16624 13.2784 3.05041 13.1364 2.97662C13.0973 2.95634 13.018 2.92611 12.8033 2.90828C12.5793 2.88968 12.2849 2.88905 11.8289 2.88905H5.94891C5.49292 2.88905 5.19849 2.88968 4.97453 2.90828C4.75988 2.92611 4.68054 2.95634 4.64149 2.97662C4.49943 3.05041 4.3836 3.16624 4.30981 3.3083C4.28953 3.34735 4.2593 3.42669 4.24147 3.64133C4.22287 3.8653 4.22224 4.15973 4.22224 4.61572V13.6068C4.22224 14.0628 4.22287 14.3572 4.24147 14.5812C4.2593 14.7959 4.28953 14.8752 4.30981 14.9143C4.3836 15.0563 4.49943 15.1721 4.64149 15.2459C4.68054 15.2662 4.75988 15.2965 4.97453 15.3143C5.19849 15.3329 5.49292 15.3335 5.94891 15.3335H8.11113C8.5407 15.3335 8.88891 15.6817 8.88891 16.1113C8.88891 16.5408 8.5407 16.8891 8.11113 16.8891H5.91844C5.50152 16.8891 5.14187 16.8891 4.84579 16.8645C4.53321 16.8385 4.22251 16.7812 3.92442 16.6263C3.49825 16.405 3.15077 16.0575 2.92939 15.6313C2.77454 15.3333 2.7172 15.0225 2.69125 14.71C2.66666 14.4139 2.66667 14.0542 2.66669 13.6373V4.58523C2.66667 4.16833 2.66666 3.80867 2.69125 3.5126C2.7172 3.20002 2.77454 2.88932 2.92939 2.59123C3.15077 2.16506 3.49825 1.81758 3.92442 1.5962C4.22252 1.44135 4.53321 1.38401 4.84579 1.35806C5.14186 1.33347 5.50152 1.33348 5.91842 1.3335ZM5.7778 5.22239C5.7778 4.79283 6.12603 4.44461 6.55558 4.44461H11.2222C11.6518 4.44461 12 4.79283 12 5.22239C12 5.65194 11.6518 6.00016 11.2222 6.00016H6.55558C6.12603 6.00016 5.7778 5.65194 5.7778 5.22239ZM5.7778 8.3335C5.7778 7.90395 6.12603 7.55572 6.55558 7.55572H11.2222C11.6518 7.55572 12 7.90395 12 8.3335C12 8.76306 11.6518 9.11127 11.2222 9.11127H6.55558C6.12603 9.11127 5.7778 8.76306 5.7778 8.3335ZM5.7778 11.4446C5.7778 11.015 6.12603 10.6668 6.55558 10.6668H8.11113C8.5407 10.6668 8.88891 11.015 8.88891 11.4446C8.88891 11.8742 8.5407 12.2224 8.11113 12.2224H6.55558C6.12603 12.2224 5.7778 11.8742 5.7778 11.4446ZM16.4389 12.4502C16.7426 12.7539 16.7426 13.2464 16.4389 13.5501L13.6028 16.3863C13.1472 16.8418 12.4084 16.8418 11.9528 16.3863L10.6723 15.1057C10.3686 14.802 10.3686 14.3095 10.6723 14.0058C10.976 13.702 11.4685 13.702 11.7722 14.0058L12.7778 15.0113L15.3389 12.4502C15.6427 12.1465 16.1352 12.1465 16.4389 12.4502Z" fill="#C79300"/>
</svg>
