<svg width="24" height="25" viewBox="0 0 24 25" fill="none" xmlns="http://www.w3.org/2000/svg">
<path d="M17 3.09668H7C4 3.09668 2 5.09668 2 8.09668V14.0967C2 17.0967 4 19.0967 7 19.0967V21.2267C7 22.0267 7.89 22.5067 8.55 22.0567L13 19.0967H17C20 19.0967 22 17.0967 22 14.0967V8.09668C22 5.09668 20 3.09668 17 3.09668ZM12 15.2667C11.58 15.2667 11.25 14.9267 11.25 14.5167C11.25 14.1067 11.58 13.7667 12 13.7667C12.42 13.7667 12.75 14.1067 12.75 14.5167C12.75 14.9267 12.42 15.2667 12 15.2667ZM13.26 11.1167C12.87 11.3767 12.75 11.5467 12.75 11.8267V12.0367C12.75 12.4467 12.41 12.7867 12 12.7867C11.59 12.7867 11.25 12.4467 11.25 12.0367V11.8267C11.25 10.6667 12.1 10.0967 12.42 9.87668C12.79 9.62668 12.91 9.45668 12.91 9.19668C12.91 8.69668 12.5 8.28668 12 8.28668C11.5 8.28668 11.09 8.69668 11.09 9.19668C11.09 9.60668 10.75 9.94668 10.34 9.94668C9.93 9.94668 9.59 9.60668 9.59 9.19668C9.59 7.86668 10.67 6.78668 12 6.78668C13.33 6.78668 14.41 7.86668 14.41 9.19668C14.41 10.3367 13.57 10.9067 13.26 11.1167Z" fill="#C79300"/>
</svg>
